<?xml version="1.0" encoding="UTF-8" standalone="no"?>
<!-- Created with Inkscape (http://www.inkscape.org/) -->

<svg
   xmlns:dc="http://purl.org/dc/elements/1.1/"
   xmlns:cc="http://creativecommons.org/ns#"
   xmlns:rdf="http://www.w3.org/1999/02/22-rdf-syntax-ns#"
   xmlns:svg="http://www.w3.org/2000/svg"
   xmlns="http://www.w3.org/2000/svg"
   version="1.1"
   width="24"
   height="24"
   id="svg2">
  <defs
     id="defs4" />
  <metadata
     id="metadata7">
    <rdf:RDF>
      <cc:Work
         rdf:about="">
        <dc:format>image/svg+xml</dc:format>
        <dc:type
           rdf:resource="http://purl.org/dc/dcmitype/StillImage" />
        <dc:title></dc:title>
      </cc:Work>
    </rdf:RDF>
  </metadata>
  <g
     transform="translate(-244.03149,-384.48642)"
     id="layer1">
    <g
       transform="translate(-0.261015,1.0211498)"
       id="g2996">
      <path
         d="m 249.94669,394.37034 c 1.27561,-4.50604 5.15081,-6.82937 8.65551,-5.18932 1.87576,0.87781 3.35338,2.77759 4.03612,5.18932 -4.19774,0 -7.96161,0 -12.69163,0 z"
         id="path3033"
         style="fill:#000000;fill-opacity:1;stroke:none" />
      <path
         d="m 255.90662,405.93909 0,-10.91449 -6.13621,0 c -0.30681,1.47216 -0.30681,3.02362 0,4.49579 0.77373,3.71261 3.30628,6.21064 6.13621,6.4187 z"
         id="path3033-5"
         style="fill:#000000;fill-opacity:1;stroke:none" />
      <path
         d="m 256.6784,405.93909 0,-10.91449 6.13621,0 c 0.3068,1.47216 0.3068,3.02362 0,4.49579 -0.77372,3.71261 -3.30627,6.21064 -6.13621,6.4187 z"
         id="path3033-5-3"
         style="fill:#000000;fill-opacity:1;stroke:none" />
      <path
         d="m 250.50416,393.48103 -4.24479,-1.92944"
         id="path3872"
         style="fill:none;stroke:#000000;stroke-width:0.87125319;stroke-linecap:round;stroke-linejoin:miter;stroke-miterlimit:4;stroke-opacity:1;stroke-dasharray:none" />
      <path
         d="m 262.08084,393.48103 4.2448,-1.92944"
         id="path3872-2"
         style="fill:none;stroke:#000000;stroke-width:0.87125319;stroke-linecap:round;stroke-linejoin:miter;stroke-miterlimit:4;stroke-opacity:1;stroke-dasharray:none" />
      <path
         d="m 249.73238,397.33993 -4.63067,0"
         id="path3910"
         style="fill:none;stroke:#000000;stroke-width:0.87125319;stroke-linecap:round;stroke-linejoin:miter;stroke-miterlimit:4;stroke-opacity:1;stroke-dasharray:none" />
      <path
         d="m 250.50416,401.19882 -4.24479,1.92945"
         id="path3872-1"
         style="fill:none;stroke:#000000;stroke-width:0.87125319;stroke-linecap:round;stroke-linejoin:miter;stroke-miterlimit:4;stroke-opacity:1;stroke-dasharray:none" />
      <path
         d="m 262.85262,397.33993 4.63068,0"
         id="path3910-2"
         style="fill:none;stroke:#000000;stroke-width:0.87125319;stroke-linecap:round;stroke-linejoin:miter;stroke-miterlimit:4;stroke-opacity:1;stroke-dasharray:none" />
      <path
         d="m 262.08086,401.19882 4.24478,1.92945"
         id="path3872-1-7"
         style="fill:none;stroke:#000000;stroke-width:0.87125319;stroke-linecap:round;stroke-linejoin:miter;stroke-miterlimit:4;stroke-opacity:1;stroke-dasharray:none" />
      <path
         d="m 256.2925,391.55159 c 0,0 0,-3.8589 -3.85889,-5.78834"
         id="path3951"
         style="fill:none;stroke:#000000;stroke-width:0.4356266;stroke-linecap:butt;stroke-linejoin:miter;stroke-miterlimit:4;stroke-opacity:1;stroke-dasharray:none" />
      <path
         d="m 256.2925,391.55159 c 0,0 0,-3.8589 3.8589,-5.78834"
         id="path3951-9"
         style="fill:none;stroke:#000000;stroke-width:0.4356266;stroke-linecap:butt;stroke-linejoin:miter;stroke-miterlimit:4;stroke-opacity:1;stroke-dasharray:none" />
      <path
         d="m 322.44095,219.68501 a 3.5433071,3.5433071 0 1 1 -7.08661,0 3.5433071,3.5433071 0 1 1 7.08661,0 z"
         transform="matrix(0.21781331,0,0,0.21781331,182.97347,337.91291)"
         id="path3989"
         style="fill:#000000;fill-opacity:1;stroke:none" />
      <path
         d="m 322.44095,219.68501 a 3.5433071,3.5433071 0 1 1 -7.08661,0 3.5433071,3.5433071 0 1 1 7.08661,0 z"
         transform="matrix(0.21781331,0,0,0.21781331,190.69125,337.91291)"
         id="path3989-3"
         style="fill:#000000;fill-opacity:1;stroke:none" />
    </g>
  </g>
</svg>
