<?xml version="1.0" encoding="UTF-8" standalone="no"?>
<svg
   xmlns:dc="http://purl.org/dc/elements/1.1/"
   xmlns:cc="http://creativecommons.org/ns#"
   xmlns:rdf="http://www.w3.org/1999/02/22-rdf-syntax-ns#"
   xmlns:svg="http://www.w3.org/2000/svg"
   xmlns="http://www.w3.org/2000/svg"
   version="1.1"
   id="svg2"
   viewBox="0 0 24 24"
   height="24"
   width="24">
  <defs
     id="defs4" />
  <metadata
     id="metadata7">
    <rdf:RDF>
      <cc:Work
         rdf:about="">
        <dc:format>image/svg+xml</dc:format>
        <dc:type
           rdf:resource="http://purl.org/dc/dcmitype/StillImage" />
        <dc:title></dc:title>
      </cc:Work>
    </rdf:RDF>
  </metadata>
  <g
     transform="translate(0,-1028.3622)"
     id="layer1">
    <g
       id="text4136"
       style="font-style:normal;font-variant:normal;font-weight:normal;font-stretch:normal;font-size:80px;line-height:125%;font-family:'EB Garamond';-inkscape-font-specification:'EB Garamond';text-align:start;letter-spacing:0px;word-spacing:0px;writing-mode:lr-tb;text-anchor:start;fill:#000000;fill-opacity:1;stroke:none;stroke-width:1px;stroke-linecap:butt;stroke-linejoin:miter;stroke-opacity:1">
      <path
         id="path4141"
         d="m 8.9205916,1032.9099 q -0.399923,0 -0.399923,-0.2666 0,-0.16 0.18663,-0.32 l 2.6128314,-2.2128 q 0.666537,-0.5865 1.093123,-0.5865 0.426584,0 1.093122,0.5865 l 2.612831,2.2128 q 0.159969,0.1333 0.159969,0.32 0,0.2933 -0.373262,0.2933 -0.239953,0 -1.413061,-0.5598 -1.173107,-0.56 -1.812985,-0.9332 -0.266614,-0.1601 -0.53323,0 -0.613215,0.3467 -1.812984,0.9065 -1.1731084,0.5599 -1.4130614,0.5599 z m 2.6928144,3.7059 -2.3995384,6.3988 q -0.05332,0.16 -0.05332,0.2133 0,0.1867 0.559892,0.1867 l 4.1325384,0 q 0.373261,0 0.373261,-0.1333 0,-0.053 -0.05333,-0.2667 l -2.106262,-6.3721 q -0.15997,-0.4799 -0.239954,-0.4799 -0.05332,0 -0.213293,0.4532 z m 8.931614,14.5839 q -0.319938,0 -1.679677,-0.081 -1.359737,-0.081 -2.026277,-0.081 -0.559891,0 -1.546368,0.026 -0.986476,0 -1.253092,0 -0.773184,0 -0.773184,-0.3199 0,-0.3732 0.879831,-0.5066 1.626353,-0.2666 1.626353,-1.1997 0,-0.7999 -1.013139,-4.186 -0.07999,-0.2933 -0.719861,-0.2933 l -5.0923534,0 q -0.293277,0 -0.453246,0.48 -1.0664613,3.0927 -1.0664613,3.7059 0,0.5599 0.4265846,0.9599 0.453246,0.3999 1.1197847,0.5598 0.87983,0.2401 0.87983,0.5332 0,0.2934 -0.773184,0.2934 -0.186631,0 -1.0398,-0.026 -0.8265076,-0.026 -1.3863999,-0.026 -0.6132153,0 -1.7063384,0.081 -1.0931223,0.081 -1.4930451,0.081 -0.7731848,0 -0.7731848,-0.3466 0,-0.3199 0.8798307,-0.6132 1.5996918,-0.4799 2.2928914,-2.0529 2.5595071,-5.8656 4.9857075,-12.531 0.186631,-0.4799 0.266615,-0.8531 0.07999,-0.4 0.07999,-0.5333 0,-0.16 0.02666,-0.16 0.719861,-0.24 0.959816,-0.3999 0.159968,-0.107 0.266614,-0.3466 0.106648,-0.2399 0.15997,-0.3999 0.07999,-0.1866 0.133307,-0.1866 0.05332,0 0.266616,0.6399 1.972953,6.2121 4.745753,14.2372 0.506568,1.4664 1.119784,1.9997 0.613216,0.5065 1.57303,0.6664 0.879831,0.16 0.879831,0.6133 0,0.2666 -0.773185,0.2666 z" />
    </g>
  </g>
</svg>
