<?xml version="1.0" encoding="UTF-8" standalone="no"?>
<svg
   xmlns:dc="http://purl.org/dc/elements/1.1/"
   xmlns:cc="http://creativecommons.org/ns#"
   xmlns:rdf="http://www.w3.org/1999/02/22-rdf-syntax-ns#"
   xmlns:svg="http://www.w3.org/2000/svg"
   xmlns="http://www.w3.org/2000/svg"
   xmlns:sodipodi="http://sodipodi.sourceforge.net/DTD/sodipodi-0.dtd"
   xmlns:inkscape="http://www.inkscape.org/namespaces/inkscape"
   id="svg2"
   height="33.98238"
   width="200"
   version="1.2"
   inkscape:version="0.91 r13725"
   sodipodi:docname="evolventa-logo.svg">
  <sodipodi:namedview
     pagecolor="#ffffff"
     bordercolor="#666666"
     borderopacity="1"
     objecttolerance="10"
     gridtolerance="10"
     guidetolerance="10"
     inkscape:pageopacity="0"
     inkscape:pageshadow="2"
     inkscape:window-width="1920"
     inkscape:window-height="1003"
     id="namedview16"
     showgrid="false"
     fit-margin-top="1"
     fit-margin-left="1"
     fit-margin-bottom="1"
     fit-margin-right="1"
     inkscape:zoom="2.3366337"
     inkscape:cx="100"
     inkscape:cy="16.991188"
     inkscape:window-x="-9"
     inkscape:window-y="-9"
     inkscape:window-maximized="1"
     inkscape:current-layer="svg2" />
  <defs
     id="defs4" />
  <metadata
     id="metadata7">
    <rdf:RDF>
      <cc:Work
         rdf:about="">
        <dc:format>image/svg+xml</dc:format>
        <dc:type
           rdf:resource="http://purl.org/dc/dcmitype/StillImage" />
        <dc:title></dc:title>
      </cc:Work>
    </rdf:RDF>
  </metadata>
  <g
     id="layer1"
     transform="matrix(0.66456891,0,0,0.66456891,-41.947766,-173.8708)">
    <g
       style="font-style:normal;font-variant:normal;font-weight:bold;font-stretch:normal;font-size:64px;line-height:125%;font-family:Evolventa;-inkscape-font-specification:'Evolventa Bold';letter-spacing:0px;word-spacing:0px;fill:#000000;fill-opacity:1;stroke:none"
       id="flowRoot2985">
      <path
         id="path2994"
         d="m 101.3125,296.47793 c -4e-5,10e-6 -9.156279,10e-6 -27.46875,0 0.520822,2.14584 1.656237,3.84376 3.40625,5.09375 1.749984,1.25001 3.885398,1.875 6.40625,1.875 1.749977,0 3.208309,-0.26041 4.375,-0.78125 1.16664,-0.54166 2.302056,-1.45833 3.40625,-2.75 l 9.28125,0 c -0.50004,1.60417 -1.437536,3.25 -2.8125,4.9375 -3.666698,4.27083 -8.354193,6.40625 -14.0625,6.40625 -2.666685,0 -5.187516,-0.47917 -7.5625,-1.4375 -2.375011,-0.95833 -4.416676,-2.25 -6.125,-3.875 -1.687506,-1.64583 -3.031254,-3.60416 -4.03125,-5.875 -1.000002,-2.29166 -1.500002,-4.70832 -1.5,-7.25 -2e-6,-3.41665 0.822914,-6.55206 2.46875,-9.40625 1.666661,-2.87497 3.927075,-5.13539 6.78125,-6.78125 2.874986,-1.66663 6.020816,-2.49997 9.4375,-2.5 3.479143,3e-5 6.614556,0.82295 9.40625,2.46875 2.791634,1.62503 4.968715,3.89586 6.53125,6.8125 1.5833,2.89586 2.37496,6.15627 2.375,9.78125 -4e-5,1.16668 -0.10421,2.26043 -0.3125,3.28125 m -27.71875,-7.5 19.65625,0 c -0.541697,-2.27081 -1.656279,-4.01039 -3.34375,-5.21875 -1.687525,-1.20831 -3.843773,-1.81247 -6.46875,-1.8125 -2.541685,3e-5 -4.656266,0.60419 -6.34375,1.8125 -1.666679,1.18752 -2.833345,2.9271 -3.5,5.21875"
         inkscape:connector-curvature="0" />
      <path
         id="path2996"
         d="m 115.8125,310.41543 c -1e-5,0 -4.76043,-11.82291 -14.28125,-35.46875 0,3e-5 3.15625,3e-5 9.46875,0 -1e-5,3e-5 2.72915,7.83336 8.1875,23.5 -2e-5,10e-6 2.68748,-7.83332 8.0625,-23.5 -3e-5,3e-5 3.2083,3e-5 9.625,0 -4e-5,3e-5 -4.76045,11.82294 -14.28125,35.46875 -2e-5,0 -2.26044,0 -6.78125,0"
         inkscape:connector-curvature="0" />
      <path
         id="path2998"
         d="m 155.78125,274.13418 c 3.37498,3e-5 6.49997,0.83337 9.375,2.5 2.87497,1.6667 5.1458,3.93753 6.8125,6.8125 1.66663,2.85419 2.49996,5.95835 2.5,9.3125 -4e-5,3.33335 -0.84379,6.42709 -2.53125,9.28125 -1.6667,2.83334 -3.94795,5.08333 -6.84375,6.75 -2.89586,1.64583 -6.04169,2.46875 -9.4375,2.46875 -3.41668,0 -6.58335,-0.82292 -9.5,-2.46875 -2.89584,-1.66667 -5.18751,-3.91666 -6.875,-6.75 -1.6875,-2.85416 -2.53125,-5.9479 -2.53125,-9.28125 0,-2.54165 0.48958,-4.95831 1.46875,-7.25 1,-2.31248 2.34374,-4.29164 4.03125,-5.9375 1.70832,-1.66664 3.73957,-2.98955 6.09375,-3.96875 2.35415,-0.97913 4.83332,-1.46872 7.4375,-1.46875 m -0.34375,7.8125 c -2.75002,3e-5 -5.12502,1.06253 -7.125,3.1875 -1.97918,2.10419 -2.96876,4.62502 -2.96875,7.5625 -1e-5,2.95835 0.99999,5.48959 3,7.59375 1.99998,2.10417 4.40623,3.15625 7.21875,3.15625 2.83331,0 5.26039,-1.04166 7.28125,-3.125 2.0208,-2.10416 3.03122,-4.62499 3.03125,-7.5625 -3e-5,-3.04165 -1.01045,-5.60415 -3.03125,-7.6875 -2.02086,-2.08331 -4.48961,-3.12497 -7.40625,-3.125"
         inkscape:connector-curvature="0" />
      <path
         id="path3000"
         d="m 179.6875,310.41543 c 0,0 0,-15.7604 0,-47.28125 0,4e-5 2.83333,4e-5 8.5,0 -1e-5,4e-5 -1e-5,15.76045 0,47.28125 -1e-5,0 -2.83334,0 -8.5,0"
         inkscape:connector-curvature="0" />
      <path
         id="path3002"
         d="m 206.0625,310.41543 c -1e-5,0 -4.76043,-11.82291 -14.28125,-35.46875 0,3e-5 3.15625,3e-5 9.46875,0 -1e-5,3e-5 2.72915,7.83336 8.1875,23.5 -2e-5,10e-6 2.68748,-7.83332 8.0625,-23.5 -3e-5,3e-5 3.2083,3e-5 9.625,0 -4e-5,3e-5 -4.76045,11.82294 -14.28125,35.46875 -2e-5,0 -2.26044,0 -6.78125,0"
         inkscape:connector-curvature="0" />
      <path
         id="path3004"
         d="m 263.6875,296.47793 c -4e-5,10e-6 -9.15628,10e-6 -27.46875,0 0.52082,2.14584 1.65624,3.84376 3.40625,5.09375 1.74998,1.25001 3.8854,1.875 6.40625,1.875 1.74998,0 3.20831,-0.26041 4.375,-0.78125 1.16664,-0.54166 2.30206,-1.45833 3.40625,-2.75 l 9.28125,0 c -0.50004,1.60417 -1.43754,3.25 -2.8125,4.9375 -3.6667,4.27083 -8.35419,6.40625 -14.0625,6.40625 -2.66669,0 -5.18752,-0.47917 -7.5625,-1.4375 -2.37501,-0.95833 -4.41668,-2.25 -6.125,-3.875 -1.68751,-1.64583 -3.03125,-3.60416 -4.03125,-5.875 -1,-2.29166 -1.5,-4.70832 -1.5,-7.25 0,-3.41665 0.82291,-6.55206 2.46875,-9.40625 1.66666,-2.87497 3.92708,-5.13539 6.78125,-6.78125 2.87499,-1.66663 6.02082,-2.49997 9.4375,-2.5 3.47914,3e-5 6.61456,0.82295 9.40625,2.46875 2.79163,1.62503 4.96872,3.89586 6.53125,6.8125 1.5833,2.89586 2.37496,6.15627 2.375,9.78125 -4e-5,1.16668 -0.10421,2.26043 -0.3125,3.28125 m -27.71875,-7.5 19.65625,0 c -0.5417,-2.27081 -1.65628,-4.01039 -3.34375,-5.21875 -1.68753,-1.20831 -3.84377,-1.81247 -6.46875,-1.8125 -2.54168,3e-5 -4.65627,0.60419 -6.34375,1.8125 -1.66668,1.18752 -2.83334,2.9271 -3.5,5.21875"
         inkscape:connector-curvature="0" />
      <path
         id="path3006"
         d="m 269.3125,310.41543 c 0,0 0,-11.82291 0,-35.46875 0,3e-5 2.61458,3e-5 7.84375,0 -10e-6,3e-5 -10e-6,1.13545 0,3.40625 1.56249,-1.5208 3.10415,-2.60413 4.625,-3.25 1.52082,-0.6458 3.31248,-0.96872 5.375,-0.96875 5.16664,3e-5 8.93747,1.81253 11.3125,5.4375 0.85413,1.37503 1.44788,2.92711 1.78125,4.65625 0.35413,1.72919 0.53122,4.12502 0.53125,7.1875 l 0,19 -8.5,0 c -3e-5,0 -3e-5,-5.78125 0,-17.34375 -3e-5,-4.58331 -0.60419,-7.59373 -1.8125,-9.03125 -1.14586,-1.39581 -2.80211,-2.09372 -4.96875,-2.09375 -2.91668,3e-5 -5.03126,1.14586 -6.34375,3.4375 -0.52085,0.81252 -0.87501,1.82294 -1.0625,3.03125 -0.18751,1.20835 -0.28126,2.96877 -0.28125,5.28125 l 0,16.71875 c -10e-6,0 -2.83334,0 -8.5,0"
         inkscape:connector-curvature="0" />
      <path
         id="path3008"
         d="m 309.09375,310.41543 c 0,0 0,-9.23958 0,-27.71875 0,3e-5 -1.38542,3e-5 -4.15625,0 0,3e-5 0,-2.58331 0,-7.75 0,3e-5 1.38541,3e-5 4.15625,0 0,3e-5 0,-3.93746 0,-11.8125 0,4e-5 2.83333,4e-5 8.5,0 -10e-6,4e-5 -10e-6,3.93754 0,11.8125 -10e-6,3e-5 1.70832,3e-5 5.125,0 -2e-5,3e-5 -2e-5,2.58336 0,7.75 -2e-5,3e-5 -1.70835,3e-5 -5.125,0 -10e-6,3e-5 -10e-6,9.2396 0,27.71875 -10e-6,0 -2.83334,0 -8.5,0"
         inkscape:connector-curvature="0" />
      <path
         id="path3010"
         d="m 362.5625,274.94668 c -4e-5,3e-5 -4e-5,11.82294 0,35.46875 -4e-5,0 -2.59379,0 -7.78125,0 -3e-5,0 -3e-5,-1.53125 0,-4.59375 -1.70836,1.9375 -3.47919,3.33333 -5.3125,4.1875 -1.81252,0.83333 -3.96877,1.25 -6.46875,1.25 -3.41668,0 -6.4896,-0.78125 -9.21875,-2.34375 -2.70834,-1.58333 -4.83334,-3.78125 -6.375,-6.59375 -1.52084,-2.81249 -2.28125,-5.97915 -2.28125,-9.5 0,-3.56248 0.77083,-6.76039 2.3125,-9.59375 1.54166,-2.85414 3.68749,-5.0833 6.4375,-6.6875 2.74999,-1.60413 5.85415,-2.40622 9.3125,-2.40625 2.56248,3e-5 4.77081,0.44795 6.625,1.34375 1.85414,0.87503 3.51039,2.28128 4.96875,4.21875 l 0,-4.75 7.78125,0 m -18.625,7 c -2.95835,3e-5 -5.40627,1.04169 -7.34375,3.125 -1.91668,2.08335 -2.87501,4.72918 -2.875,7.9375 -10e-6,3.10418 0.96874,5.62501 2.90625,7.5625 1.95832,1.91667 4.48957,2.875 7.59375,2.875 3.08331,0 5.56247,-0.97916 7.4375,-2.9375 1.8958,-1.95832 2.84372,-4.52082 2.84375,-7.6875 -3e-5,-3.20831 -0.98961,-5.8229 -2.96875,-7.84375 -1.95836,-2.02081 -4.48961,-3.03122 -7.59375,-3.03125"
         inkscape:connector-curvature="0" />
    </g>
  </g>
</svg>
